<?xml version="1.0" encoding="iso-8859-1"?>
<!-- Uploaded to: SVG Repo, www.svgrepo.com, Generator: SVG Repo Mixer Tools -->
<svg fill="#000000" height="800px" width="800px" version="1.1" id="Layer_1" xmlns="http://www.w3.org/2000/svg" xmlns:xlink="http://www.w3.org/1999/xlink" 
	 viewBox="0 0 512 512" xml:space="preserve">
<g>
	<g>
		<g>
			<path d="M501.911,405.438H10.089C4.517,405.438,0,409.956,0,415.527v69.36c0,5.571,4.517,10.089,10.089,10.089h491.823
				c5.571,0,10.089-4.517,10.089-10.089v-69.36C512,409.956,507.483,405.438,501.911,405.438z M346.798,474.798H20.177v-49.182
				h326.621V474.798z M491.823,474.798H366.975v-49.182h124.847V474.798z"/>
			<path d="M256,159.527c25.729,0,46.66-20.931,46.66-46.66s-20.931-46.66-46.66-46.66s-46.66,20.931-46.66,46.66
				S230.271,159.527,256,159.527z M256,86.384c14.602,0,26.483,11.879,26.483,26.483c0,14.603-11.881,26.483-26.483,26.483
				c-14.602,0-26.483-11.879-26.483-26.483C229.517,98.264,241.398,86.384,256,86.384z"/>
			<path d="M186.64,265.458H325.36c5.571,0,10.089-4.517,10.089-10.089c0-43.808-35.641-79.448-79.448-79.448
				s-79.448,35.641-79.448,79.448C176.552,260.941,181.069,265.458,186.64,265.458z M256,196.099
				c29.242,0,53.609,21.29,58.412,49.182H197.587C202.391,217.388,226.758,196.099,256,196.099z"/>
			<path d="M171.864,314.64h33.406c8.369,0,15.979,4.604,19.863,12.017l21.93,41.849c1.742,3.323,5.183,5.406,8.936,5.406
				s7.195-2.082,8.936-5.406l21.93-41.849c3.884-7.411,11.495-12.016,19.863-12.016h33.406c23.491,0,42.603-19.112,42.603-42.603
				V59.628c0-23.491-19.112-42.603-42.603-42.603H171.864c-23.491,0-42.603,19.112-42.603,42.603v212.411
				C129.261,295.529,148.373,314.64,171.864,314.64z M149.438,59.628c0-12.365,10.061-22.426,22.426-22.426h168.271
				c12.366,0,22.426,10.061,22.426,22.426v212.411c0,12.365-10.061,22.426-22.426,22.426H306.73
				c-15.897,0-30.358,8.748-37.735,22.828L256,342.088l-12.994-24.795c-7.377-14.081-21.837-22.829-37.735-22.829h-33.406
				c-12.366,0-22.426-10.061-22.426-22.426V59.628z"/>
		</g>
	</g>
</g>
</svg>
